<?xml version="1.0" encoding="utf-8"?>
<svg version="1.1" id="Layer_1" xmlns="http://www.w3.org/2000/svg" xmlns:xlink="http://www.w3.org/1999/xlink" x="0px" y="0px"
	 viewBox="0 0 2651.903 1213.804" enable-background="new 0 0 2651.903 1213.804" xml:space="preserve">
<path d="M2354.332,43.658c5.249-1.861,127.192,0.077,128.255,0.096c9.951,1.754,18.722,9.324,21.943,18.924
	c3.805,10.285,0.751,19.829,1.499,74.004c23.534-0.425,47.757-0.666,46.788,23.665c-1.453,56.405,12.038,58.319-67.519,58.493
	c0.386,12.909,0.806,5.679,5.698,17.063c21.41,8.299,63.314-0.879,78.586,22.347c2.732,6.113,2.998,13.651-0.191,19.668
	c-32.145,62.279-60.669,81.79-54.485,97.658c2.094,5.783,2.488,11.981,2.286,18.084c7.867,7.787,22.811,17.498,5.868,33.52
	c-1.935,1.999-4.837,3.551-5.443,6.453c0.797,3.328,1.265,6.708,1.584,10.121c0.819,1.053,1.829,1.967,2.818,2.924
	c-14.222,28.717,35.77,15.554,38.793,49.563c0.023,15.142-21.647,22.297-36.529,27.864
	c27.639,341.306,25.027,316.929,27.769,319.458c11.182,12.492,15.015,26.608,5.029,40.728c15.181,19.147,46.668,60.3,48.872,84.635
	c0,14.124-4.729,28.867-14.342,39.495c13.612,19.408,17.67,43.143,7.665,71.697c1.212,9.898,3.764,19.636,5.411,29.502
	c-37.815,49.191-132.678,57.178-195.359,55.367c-62.015,0.604-161.14-10.581-197.783-58.865c6.151-27.75,6.823-28.498,5.794-31.043
	c-9.695-27.774-4.37-51.806,9.823-69.868c-10.642-11.567-15.851-28.024-13.842-43.588c5.779-24.312,35.794-60.825,52.199-79.915
	c-10.96-14.5-5.102-30.205,8.08-42.589c11.003-105.6,21.836-211.211,32.936-316.8c-24.691-9.768-47.032-16.779-33.818-40.282
	c10.536-18.02,51.816-13.183,37.422-37.262c1.084-0.957,2.222-1.903,3.359-2.86c0.171-9.155,2.816-10.139,0.681-12.066
	c-4.006-4.575-16.446-12.544-11.567-23.187c2.594-6.485,8.802-10.238,13.682-14.841c-0.128-4.656-0.021-9.387,1.329-13.874
	c4.42-15.944,6.523-9.022-25.653-55.559c-6.358-10.089-11.609-20.848-18.19-30.799c-8.135-13.083-17.043-21.628-10.312-35.71
	c16.008-23.357,60.861-13.208,83.242-21.39c4.177-10.287,5.414-2.995,6.092-16.999c-81.093-0.489-69.861-5.29-69.773-49.754
	c0.756-36.614,12.794-32.383,49.69-32.648c-0.041-10.309-0.463-65.553,2.53-73.387C2338.279,53.077,2345.816,46.581,2354.332,43.658
	z"/>
<path d="M1990.244,201.793c23.864,2.396,79.906,8.482,93.916,27.312c10.823,14.235,10.61,34.934,1.839,50.126
	c-6.284,11.48-43.022,32.234-43.375,60.704c-0.327,16.724,22.818,48.738,7.431,69.06c-0.84,1.212-2.02,2.413-1.627,4.029
	c0.531,8.346,0.68,16.723,1.403,25.047c2.328,2.828,5.433,5.039,7.293,8.282c2.924,3.965,2.87,9.302,5.879,13.215
	c1.35,1.818,3.317,3.009,4.954,4.561c4.614,5.751,7.346,13.076,13.236,17.754c6.45,5.562,7.42,19.148,1.733,23.782
	c-3.827,7.91-8.26,16.425-16.426,20.614c-18.383,8.414-14.563,17.858-14.969,27.195c-0.292,50.781-5.056,233.444,12.003,280.803
	c2.111,6.613,12.5,11.321,8.781,26.057c3.806,5.688,6.825,12.885,4.316,19.721c6.156,5.135,10.695,12.981,9.483,21.231
	c0.829,1.063,45.561,42.9,45.427,60.353c0.17,9.823-0.255,19.753-2.604,29.321c-1.425,6.028-5.645,11.269-5.688,17.616
	c-0.164,6.774,17.258,20.719,12.726,42.525c-0.649,3.423-2.871,6.198-4.316,9.292c-1.775,41.964,0.292,47.384-2.381,54.017
	c-25.717,66.392-284.969,61.358-349.013,21.326c-25.64-16.9-20.605-25.44-21.741-75.163c-15.772-30.793,10.404-41.882,8.239-54.283
	c-1.939-11.204-7.004-6.606-8.367-39.187c-0.251-8.392-0.857-11.59,13.895-31.001c32.956-42.413,30.243-25.511,32.436-39.357
	c0.319-6.719,4.71-12.407,9.589-16.68c-2.445-6.825,0.542-13.948,4.391-19.583c-1.648-6.687-0.298-14.15,4.465-19.264
	c23.792-23.746,16.713-257.996,16.776-297.281c0-7.995-6.825-13.778-13.544-16.819c-8.409-3.572-13.853-11.567-17.393-19.668
	c-0.925-2.445-3.593-3.785-4.104-6.421c-1.871-6.953-0.17-15.511,5.847-19.987c6.591-5.603,8.824-14.937,16.021-19.944
	c4.338-3.593,4.104-9.781,7.08-14.225c2.084-3.328,5.029-5.985,7.899-8.633c1.7-31.983,2.021-25.21-0.744-29.852
	c-8.149-10.97-6.361-25.225,5.996-57.961c9.214-22.09-14.152-45.137-32.234-60.332c-23.217-17.082-22.122-59.436,4.933-71.07
	c22.769-10.465,57.475-14.755,82.562-17.223C1909.607,154.533,1984.403,155.791,1990.244,201.793z"/>
<path d="M1545.33,364.147c-0.808,4.667-4.114,10.259-0.744,14.586c10.004,8.738,53.571,30.881,55.995,93.406
	c0.99,8.679-3.438,11.996,1.169,29.087c7.099,33.847-12.184,60.378-12.205,96.245c0.266,20.654,7.891,20.073,32.989,36.189
	c4.605,3.479,11.292-0.747,7.059,18.509c-3.822,12.032-5.06,8.211-28.651,16.074c19.421,273.988,9.902,211.136,27.535,230.538
	c11.92,11.382-0.806,28.727,8.197,47.033c3.191,7.035,28.158,12.555,35.997,33.084c1.669,3.934,0.638,8.93,3.902,12.162
	c4.401,4.763,6.57,11.599,5.262,18.02c-1.566,7.811-6.545,11.596-21.496,25.09c9.132,5.411,16.011,14.916,17.052,25.632
	c3.011,34.255,8.437,74.826-31.522,92.757c-95.2,33.71-160.586,31.915-248.282,7.665c-14.973-4.267-53.502-11.665-58.142-51.519
	c-2.439-50.071,1.424-64.21,18.573-74.525c-12.911-11.153-32.832-25.342-16.308-43.418c3.03-3.072,2.02-7.782,3.615-11.503
	c7.551-20.285,33.23-26.541,36.688-33.403c9.312-18.772-4.691-37.658,9.823-48.361c5.917-4.61,11.835-1.21,12.353-24.569
	c14.848-217.215,14.047-202.944,13.597-204.896c-7.304-2.318-14.756-4.178-22.102-6.347c-6.254-2.776-11.231-20.538-5.507-25.387
	c2.211-0.967,4.603-1.584,6.655-2.924c25.595-16.22,32.728-15.447,33.042-35.817c0.065-36.883-21.531-65.595-11.173-101.177
	c1.882-6.591,0.617-13.395-0.011-20.05c-0.234-32.829,14.48-66.435,41.377-85.953c21.45-14.911,17.645-12.287,14.618-26.759
	c-3.487-13.14-2.339-27.652,4.019-39.75C1502.093,280.149,1559.463,314.128,1545.33,364.147z"/>
<path d="M554.72,452.532c4.04-19.455,24.494-33.116,43.96-30.724c21.578,3.302,31.264,28.387,35.413,33.095
	c18.499,21.865,27.435,1.555,61.406,33.456c23.391,22.435,28.057,42.997,79.086,89.855c8.746,8.715,28.724,21.79,13.757,43.205
	c-11.068,16.677-19.532,12.82-52.667,49.637c-10.381,11.519-27.279,9.536-41.504,3.37c-24.409-11.104-21.95-22.124-32.585-19.7
	c-10.907,2.238-23.642,18.616-16.234,32.393c11.703,22.258,69.403,36.815,145.839,94.384c31.541,24.782,30.92,64.886,24.09,79.49
	c-8.55,19.414-25.448,23.584-29.363,30.097c-12.044,19.38-1.933,35.692,15.405,50.381c10.365,9.034,23.19,10.755,44.343,44.959
	c8.976,16.054,3.007,24.057-9.664,32.383c-11.195,7.417-2.496,12.336,1.552,17.244c17.701,20.73,10.279,20.456,8.537,38.07
	c-2.367,16.996,6.791,31.477-5.613,47.245c-56.798,66.329-390.616,52.004-388.954-6.942c4.581-56.833-4.938-62.054,15.245-77.098
	c-0.34-2.615-0.415-5.241,0.064-7.825c-25.635-15.704-15.488-46.889,5.603-63.809c45.414-37.707,28.211-23.781,37.783-34.573
	c5.522-15.246-4.898-24.08,7.336-31.872c-21.603-14.937-40.292-34.137-54.666-56.122c-17.66-29.089-11.616-78.613-3.317-111.447
	c8.76-36.924,19.341-49.004,17.116-107.365c-1.852-45.281-26.988-122.345,64.808-155.227
	C548.745,466.863,553.646,459.846,554.72,452.532z"/>
<path d="M1013.258,497.258c159.998,0,162.893-0.832,184.069,2.817c26.449,5.352,19.332,10.851,26.206,16.245
	c1.903,2.02,4.997,2.881,6.283,5.454c0.351,2.424-2.36,3.487-3.849,4.827c-1.327,26.55-0.036,23.101-9.717,32.021
	c-5.702,7.692,1.842,31.926-13.64,36.954c0.682,15.045,0.163,31.817-13.597,38.06c-0.574,8.048,0.053,17.244-5.326,23.899
	c20.761,281.25,14.323,212.234,29.225,237.236c5.815,9.026,7.622,19.88,9.483,30.278c15.818,13.649,50.094,45.535,50.381,66.349
	c1.041,21.281-3.282,26.924-13.363,35.115c13.3,11.322,14.533,30.703,12.29,46.841c0.011,10.631,2.211,21.177,2.509,31.819
	c-34.804,79.091-333.498,80.141-376.271,2.594c-3.453-5.279,3.406-26.22,0.723-40.898c-0.999-14.256,1.34-30.735,13.034-40.377
	c-10.143-8.453-14.154-12.785-13.406-35.136c0.247-20.935,34.937-52.789,50.647-66.562c5.903-36.736,14.291-31.675,18.158-39.293
	c5.564-10.201,3.688-2.406,20.603-227.976c-5.422-6.655-4.848-15.862-5.337-23.931c-13.368-5.528-14.565-23.401-13.757-37.868
	c-15.71-5.886-7.599-29.136-13.65-37.167c-11.297-10.47-7.591-6.487-9.855-32.234c-1.892-1.233-4.954-3.083-3.147-5.688
	c2.615-2.126,5.73-3.753,7.75-6.549c1.988-2.541,2.86-6.049,5.762-7.803C967.88,498.163,998.43,497.088,1013.258,497.258z"/>
<path d="M218.146,643.122c58.723,0.064,91.148,73.358,58.695,123.801c-3.449,5.898-11.978,12.598-3.795,16.138
	c21.968,10.93,33.187,14.492,32.351,24.048c-0.595,10.663-14.767,14.512-14.32,25.462c4.71,38.357,9.749,76.672,14.48,115.03
	c1.203,14.276,21.327,10.326,29.023,26.801c2.775,8.335,2.041,17.371,3.763,25.908c29.742,14.512,41.462,19.565,39.463,40.686
	c-0.468,9.1-6.645,17.255-5.284,26.546c12.046,16.029,10.729,1.482,10.387,62.427c-64.497,48.887-277.25,45.063-336.957,0.021
	v-47.617c1.605-4.933,4.986-8.941,8.569-12.577c3.849-3.413,1.542-9.037,0.595-13.278c-11.591-32.525-0.103-40.119,36.146-56.218
	c1.444-23.275,2.874-27.202,7.591-31.777c10.918-11.222,23.735-8.443,25.111-20.476c16.351-129.723,18.655-117.808,6.389-129.637
	c-23.474-25.836,28.864-29.621,29.863-38.9c0.489-2.764-1.712-4.901-3.136-6.974C117.434,722.506,150.868,640.206,218.146,643.122z"
	/>
</svg>
