<?xml version="1.0" encoding="utf-8"?>
<!DOCTYPE svg PUBLIC "-//W3C//DTD SVG 1.1//EN" "http://www.w3.org/Graphics/SVG/1.1/DTD/svg11.dtd">
<svg version="1.1" id="Ebene_1" xmlns="http://www.w3.org/2000/svg" xmlns:xlink="http://www.w3.org/1999/xlink" x="0px" y="0px"
	 viewBox="-566.7274 -103 1664.797 507.0414" enable-background="new -566.7274 -103 1664.797 507.0414" xml:space="preserve">
<g>
	<path stroke="#000000" stroke-width="0.975" d="M289.5465,255.2547c4.2551-2.5163,6.0524-5.8819,6.0524-9.5858
		c0-1.0845,0.1536-52.1748,0.1536-52.1748h-50.6521c0,0-0.2381,51.5298-0.2381,52.1748c0,3.7313,2.6438,7.1202,6.9572,9.6424
		c-3.0508,0.444-6.0679,0.9877-9.0513,1.6422c4.7714,3.0493,9.2784,6.6103,13.4477,10.6719
		c5.9081,5.747,10.7962,12.1112,14.6337,18.9734c3.8373-6.8622,8.7285-13.2265,14.6306-18.9734
		c4.1783-4.0616,8.6885-7.6287,13.4599-10.6778c-3.0517-0.6607-6.1978-1.1955-9.3439-1.6674L289.5465,255.2547z"/>
	<path d="M336.1401,371.3768c-3.1338-6.2831-3.2197-14.4984-1.828-20.0472c1.4256-5.7083,14.9471-16.5107,14.9471-16.5107
		c23.82-23.1688,29.2734-56.1955,12.1848-73.7632c-17.0946-17.5662-50.2525-13.0144-74.0716,10.1572
		c-7.1124,6.922-12.5689,14.7212-16.299,22.7277c-3.7269-8.0065-9.1894-15.8056-16.2989-22.7277
		c-23.8152-23.1716-56.9788-27.7233-74.0716-10.1572c-17.087,17.5662-11.6304,50.5954,12.1836,73.7632
		c1.0753,1.0446,12.9456,10.8024,14.3726,16.5107c1.424,5.7023,1.6222,13.8994-1.8035,20.2589h0.5146
		c-0.0753,0.043-0.149,0.0707-0.2258,0.1137c19.709,9.7208,41.8902,15.1896,65.3474,15.1896
		c23.4384-0.0315,45.3037-5.8203,65.0297-15.5417"/>
	<g>
		<path stroke="#FFFFFF" stroke-width="3.1741" stroke-linecap="round" d="M209.1954,370.2128
			c18.9687-8.8515,39.9428-13.7641,62.2548-13.7641c21.4327,0,42.0035,5.2628,60.3546,12.7379"/>
		<path stroke="#FFFFFF" stroke-width="3.1741" stroke-linecap="round" d="M340.9221,333.4665
			c-19.7552-6.704-43.9635-10.6549-70.1201-10.6549c-26.3853,0-50.7842,4.0248-70.636,10.8361"/>
	</g>
	<polygon fill="none" stroke="#FFFFFF" stroke-width="1.9503" stroke-linejoin="bevel" points="291.623,197.1778 249.1192,235.277 
		291.623,235.277 249.1192,197.1778 	"/>
	<path fill="none" stroke="#FFFFFF" stroke-width="3.1741" stroke-linecap="round" d="M328.558,356.7161
		c-18.1913-6.3875-37.5454-11.0204-57.6207-11.0204c-20.4619,0-40.1724,4.7622-58.6589,11.3737"/>
	<polygon fill="#FFFFFF" stroke="#000000" stroke-width="0.9974" points="260.98,335.2912 270.9531,340.262 280.9262,335.2912 
		270.9531,330.2889 	"/>
	<polygon fill="#FFFFFF" stroke="#000000" stroke-width="0.9974" points="220.2381,341.7722 230.8719,345.0755 239.9012,338.5631 
		229.2674,335.2283 	"/>
	<polygon fill="#FFFFFF" stroke="#000000" stroke-width="0.9974" points="321.6996,341.7722 311.0343,345.0755 302.005,338.5631 
		312.6388,335.2283 	"/>
	
		<rect x="249.1192" y="197.1778" fill="none" stroke="#FFFFFF" stroke-width="1.9503" stroke-linejoin="bevel" width="42.5225" height="38.0992"/>
	<ellipse fill="none" stroke="#FFFFFF" stroke-width="1.9503" cx="270.7329" cy="252.6119" rx="17.9271" ry="13.2409"/>
	<path fill="#FFFFFF" stroke="#20201E" stroke-width="3.809" d="M295.8387-84.1298h-50.6489v52.933
		c0,7.7929,11.3982,14.1174,25.4513,14.1174c14.0621,0,25.098-6.3243,25.098-14.1174c0-0.689,0.0944-52.933,0.0944-52.933
		L295.8387-84.1298z"/>
	<rect x="245.1866" y="-84.1298" fill="#FFFFFF" stroke="#20201E" stroke-width="3.809" width="50.6489" height="45.3855"/>
	<line fill="none" stroke="#20201E" stroke-width="3.809" x1="245.1866" y1="-84.1298" x2="295.8387" y2="-38.7475"/>
	<line fill="none" stroke="#20201E" stroke-width="3.809" x1="295.8387" y1="-84.1298" x2="245.1866" y2="-38.7475"/>
	<path fill="#FFFFFF" stroke="#20201E" stroke-width="3.809" stroke-linejoin="round" d="M335.9199,93.6085
		c-19.7062-9.724-41.1256-14.8363-64.5861-14.8363c-23.4604,0-45.8951,5.4518-65.6054,15.1742
		c19.7106,9.7239,41.7643,15.3234,65.2215,15.3234c23.4698,0.0314,45.2723-5.9147,64.9667-15.6361L335.9199,93.6085z"/>
	<path fill="#FFFFFF" stroke="#20201E" stroke-width="3.809" stroke-linejoin="bevel" d="M345.7672,60.26
		c1.1306-0.9893,2.252-2.0016,3.3518-3.0693c23.8169-23.1732,29.2734-56.1986,12.1848-73.7632
		c-17.0946-17.5662-50.2525-13.0144-74.0684,10.1572c-7.1155,6.9205-12.5752,14.7228-16.3018,22.7277
		c-3.7237-8.0049-9.1862-15.8072-16.2989-22.7277c-23.8153-23.1716-56.982-27.7233-74.0684-10.1572
		c-17.093,17.5646-11.638,50.5923,12.182,73.7632c1.103,1.0707,2.229,2.0876,3.3673,3.077
		c20.5647-7.7224,46.559-12.3371,74.8361-12.3371c28.2519,0,54.2386,4.6248,74.7825,12.3327L345.7672,60.26z"/>
	<path fill="#FFFFFF" stroke="#20201E" stroke-width="3.809" d="M270.9531,16.3406c3.7269-8.0065,9.1862-15.8072,16.3018-22.7245
		c5.7976-5.6469,12.1574-10.1789,18.7045-13.5628c-10.8578-3.0539-22.6493-4.7298-34.9877-4.7298
		c-12.3446,0-24.1488,1.6806-35.0096,4.7393c6.5379,3.3827,12.8946,7.9112,18.6922,13.5537
		c7.1102,6.9214,12.5529,14.7237,16.2967,22.7148L270.9531,16.3406z"/>
	<path fill="#FFFFFF" stroke="#20201E" stroke-width="3.809" stroke-linejoin="bevel" d="M345.484,60.26l-0.0123-0.0169
		c-20.554-7.7133-46.5338-12.3201-74.7857-12.3201c-28.2764,0-54.2701,4.6147-74.8329,12.3371c0,0,9.8636,7.7255,11.291,13.4322
		c1.4256,5.7023,2.037,13.8809-1.3902,20.2391c19.7078-9.7224,42.1451-15.1742,65.6055-15.1742
		c23.0117,0,45.1652,5.461,64.5861,14.8363c-3.1338-6.2784-3.14-14.3556-1.7513-19.9012
		c1.4158-5.663,11.2945-13.4023,11.2945-13.4023L345.484,60.26z"/>
	<path fill="#FFFFFF" stroke="#20201E" stroke-width="3.809" stroke-linejoin="bevel" d="M205.7346,93.9546
		c19.7077-9.7224,42.145-15.1742,65.6054-15.1742c23.0117,0,45.1621,5.461,64.5861,14.8363
		c-1.3334-2.6822-2.7344-9.532-2.5101-13.3523c-19.5218-7.6746-40.5153-11.8702-62.3869-11.8702
		c-22.1239,0-43.3405,4.2828-63.0477,12.1187c0.2517,7.0787-0.7551,10.6338-2.2337,13.4023L205.7346,93.9546z"/>
	<polygon points="261.3261,58.4352 271.079,63.3117 280.8004,58.4352 271.079,53.5588 	"/>
	<polygon points="221.4651,64.7904 231.8472,68.0308 240.6878,61.6443 230.3056,58.4038 	"/>
	<polygon points="320.6613,64.7904 310.2793,68.0308 301.4388,61.6443 311.8208,58.4038 	"/>
	<ellipse fill="#FFFFFF" stroke="#20201E" stroke-width="3.809" cx="270.9531" cy="-23.9577" rx="17.9302" ry="13.2394"/>
	<path stroke="#000000" stroke-width="2.684" stroke-linejoin="bevel" d="M618.1242,239.7759
		c2.676-4.5933,1.1306-10.4859-3.4626-13.1635c-4.5838-2.6791-10.4768-1.1306-13.1557,3.461
		c-2.2981,3.9358-1.4809,8.8191,1.6867,11.8224c-13.1066,15.8902-37.0232,44.8758-42.8026,51.9042
		c-1.696-0.7558-3.4534-1.4763-5.2782-2.1506c0.5161-5.3874,4.3044-46.5338,6.3167-68.4149
		c4.3658,0.0999,8.3906-2.7912,9.5336-7.2017c1.3303-5.1461-1.7604-10.3953-6.9035-11.7286
		c-5.1492-1.3303-10.3969,1.7605-11.7301,6.905c-1.1399,4.4073,0.9739,8.8883,4.8421,10.9239
		c-9.4782,21.5064-27.8693,63.2584-27.9152,63.4315c-0.0092,0.0415-0.0031,0.0845-0.0123,0.1259
		c-1.6714-0.2012-3.389-0.3748-5.1339-0.5192c-0.3502-2.3135-8.2371-50.7118-12.3509-75.9183
		c4.7255-1.1045,8.2494-5.3336,8.2494-10.3969c0-5.9065-4.7868-10.6948-10.6949-10.6948c-5.9021,0-10.6917,4.7884-10.6917,10.6948
		c0,5.0633,3.5271,9.2923,8.2522,10.3969c-4.0925,25.092-11.93,73.1623-12.3415,75.8774c-1.8311,0.1444-3.6161,0.3226-5.3644,0.5238
		c-0.0123-0.0599-0.0092-0.1106-0.0276-0.1674c-0.043-0.1721-18.4374-41.9279-27.9092-63.4346
		c3.8649-2.0293,5.9788-6.5118,4.839-10.9223c-1.3334-5.1432-6.5842-8.2339-11.7302-6.9019
		c-5.14,1.3319-8.2339,6.5826-6.9006,11.7255c1.1429,4.4118,5.1646,7.3015,9.5305,7.2002
		c2.0093,21.8584,5.7853,62.9187,6.3167,68.396c-1.7943,0.6498-3.5148,1.3503-5.186,2.0846
		c-6.0065-7.3014-29.6575-35.9692-42.6704-51.7343c3.1737-3.0032,3.994-7.8866,1.696-11.8224
		c-2.676-4.5917-8.5719-6.1402-13.162-3.461c-4.587,2.6776-6.1355,8.5703-3.4563,13.1635c2.295,3.931,6.9529,5.6239,11.1281,4.3382
		c7.8253,20.3804,33.0843,85.9763,34.0501,86.8793h0.0092c0.0184,0.1137,2.5009,16.3848,2.7744,21.7798
		c0.2734,5.3672-2.0616,18.4987-1.8926,18.5755v0.0123c0.0031,0,0.0061-0.0061,0.0092-0.0061
		c18.7321,8.7716,40.0654,13.7028,62.9438,13.7028c23.0917,0,64.7748-14.1206,64.5798-14.2127
		c-2.7252-5.7514-1.6959-39.8578-1.6959-39.8578c0.9647-0.9125,26.5543-65.9578,34.585-86.873
		c4.1213,1.2899,8.7776-0.409,11.0742-4.3416"/>
	<g>
		<path stroke="#FFFFFF" stroke-width="2.9123" stroke-linecap="round" d="M451.2241,367.4442
			c19.6967-8.1172,38.1338-11.6012,60.7258-11.6012c21.6971,0,39.065,3.5916,57.2242,11.1158"/>
		<path stroke="#FFFFFF" stroke-width="2.9123" stroke-linecap="round" d="M565.4272,329.408
			c-16.0224-6.1569-35.6515-9.7793-56.8561-9.7793c-21.396,0-41.1823,3.6869-57.2809,9.9423"/>
	</g>
	<path fill="none" stroke="#FFFFFF" stroke-width="2.9123" stroke-linecap="round" d="M567.3463,356.2127
		c-17.7335-5.859-35.7868-10.1112-56.1136-10.1112c-20.7108,0-40.6695,4.3749-59.3825,10.446"/>
	<polygon fill="#FFFFFF" points="500.4604,334.3159 509.3953,338.7834 518.3616,334.3159 509.3953,329.8484 	"/>
	<polygon fill="#FFFFFF" points="554.9191,340.1362 545.3865,343.1249 537.2697,337.2732 546.8023,334.2844 	"/>
	<polygon fill="#FFFFFF" points="463.9028,340.1362 473.4355,343.1249 481.5524,337.2732 472.0197,334.2844 	"/>
	<path fill="#FFFFFF" stroke="#20201E" stroke-width="3.4947" stroke-linejoin="bevel" d="M572.5688,100.5929
		c-19.0854-8.9236-40.0026-13.609-63.0948-13.609c-23.0923,0-45.4767,5.1156-65.1902,14.0407
		c19.0854,8.916,40.7356,13.9362,63.831,13.9362c23.1237,0.0314,44.7689-5.4427,64.4633-14.3462L572.5688,100.5929z"/>
	<path fill="#FFFFFF" stroke="#20201E" stroke-width="3.4947" stroke-linejoin="bevel" d="M571.153,60.5431l-0.0123-0.0215
		c-17.1559-7.0724-37.1176-11.3753-63.0351-11.3753c-25.9489,0-46.0116,4.3057-63.6706,11.397c0,0,1.9264,16.371,2.0062,21.7845
		c0.0952,6.0971-1.6099,18.5909-1.6099,18.5909c19.7121-8.9251,41.5598-13.9422,64.6521-13.9422
		c22.6493,0,45.6686,4.6483,63.0948,13.609c-2.863-5.7259-1.4158-40.0183-1.4158-40.0183L571.153,60.5431z"/>
	<path fill="#FFFFFF" stroke="#20201E" stroke-width="3.4947" stroke-linejoin="bevel" d="M444.9005,100.8131
		c18.554-8.8239,41.4906-13.8378,64.583-13.8378c22.6493,0,41.6637,3.1936,63.0948,13.609
		c-0.8633-2.4072-1.441-9.8853-1.6284-12.5982c-18.9688-7.0466-39.8893-11.0466-61.4212-11.0466
		c-21.7706,0-43.674,4.2183-63.3245,11.4093c-0.409,2.8-1.2899,12.427-1.2899,12.427L444.9005,100.8131z"/>
	<path fill="#FFFFFF" stroke="#20201E" stroke-width="3.4947" d="M613.7196-43.8284c-4.587-2.6791-10.4796-1.1306-13.1588,3.4626
		c-2.3012,3.9358-1.4809,8.8176,1.6867,11.824c-13.1066,15.8871-37.0294,44.8727-42.8026,51.9042
		c-1.696-0.7573-3.4534-1.4763-5.2814-2.1476c0.5192-5.3921,4.3073-46.537,6.3167-68.4212
		c4.3658,0.0998,8.3938-2.7912,9.5336-7.1986c1.3303-5.1476-1.7574-10.3985-6.9067-11.7302
		c-5.14-1.3319-10.3906,1.7589-11.7242,6.9035c-1.1429,4.4089,0.9739,8.8915,4.8422,10.9207
		c-9.4782,21.5126-27.8693,63.2616-27.9152,63.4346c-0.0092,0.0415-0.0031,0.0845-0.0123,0.1275
		c-1.6713-0.1982-3.389-0.3748-5.14-0.5192c-0.3472-2.315-8.2339-50.7118-12.3446-75.9183c4.7255-1.106,8.243-5.3351,8.243-10.3985
		c0-5.9021-4.7836-10.6933-10.6888-10.6933c-5.9052,0-10.6917,4.7915-10.6917,10.6933c0,5.0633,3.5271,9.2923,8.2494,10.3985
		c-4.0925,25.0935-11.9299,73.1623-12.3414,75.8774c-1.8281,0.1475-3.6162,0.3211-5.3613,0.5269
		c-0.0123-0.0614-0.0092-0.1137-0.0276-0.169c-0.043-0.1736-18.4374-41.9279-27.9093-63.4378
		c3.8619-2.0278,5.9757-6.5086,4.8359-10.9207c-1.3304-5.1445-6.5842-8.2355-11.7271-6.9035
		c-5.1429,1.3321-8.2339,6.5826-6.9006,11.7255c1.1429,4.4133,5.1646,7.3014,9.5304,7.2001
		c2.0093,21.8597,5.7853,62.9187,6.3168,68.396c-1.7943,0.6544-3.5208,1.3534-5.186,2.0892
		c-6.0066-7.3062-29.6575-35.9724-42.6704-51.7374c3.1737-3.0063,3.9911-7.8882,1.6959-11.824
		c-2.676-4.5933-8.5719-6.1418-13.162-3.4626c-4.587,2.6775-6.1387,8.5703-3.4626,13.1635
		c2.3012,3.9326,6.9589,5.6239,11.1343,4.3397c7.8253,20.3804,33.0843,85.9732,34.0501,86.8793
		c17.4111-7.0863,37.4322-11.397,63.3749-11.397c25.9306,0,45.9455,4.3057,63.3591,11.3907
		c0.9586-0.9079,26.5511-65.9609,34.5787-86.873c4.1783,1.2842,8.8329-0.4071,11.1312-4.3397
		c2.5798-4.5901,1.0381-10.4828-3.5551-13.1601L613.7196-43.8284z"/>
	<polygon points="499.5166,63.6578 508.4514,68.1252 517.4178,63.6578 508.4514,59.1903 	"/>
	<polygon points="462.959,69.4466 472.4917,72.4039 480.6085,66.5522 471.0759,63.5948 	"/>
	<polygon points="553.9753,69.478 544.4427,72.4668 536.3259,66.6151 545.8585,63.6263 	"/>
	<g>
		<path stroke="#000000" stroke-width="2.684" stroke-linecap="square" d="M-379.3941,368.9229h-3.0493v-18.3175l-14.6781-16.437
			h-0.149v-96.9625h0.149l19.0977-18.2668h0.1213v-31.2504c0-2.7313-2.1199-4.9435-4.7298-4.9435h-26.4209v16.9854l-14.8288,4.9126
			l-13.6644-4.9126v-16.9854h-32.5652v16.9854l-13.6672,4.9126l-14.8272-4.9126v-16.9854h-26.4162
			c-2.6115,0-4.7282,2.2121-4.7282,4.9435v31.2504h0.0538l19.1653,18.2668v96.9625l-14.6797,16.437v18.3175h-3.0524
			c-2.7313,0-4.945,2.2152-4.945,4.9494v11.6226c0,2.7282,2.2136,4.9435,4.945,4.9435h148.8636
			c2.7344,0,4.9466-2.2152,4.9466-4.9435v-11.6226c0-2.7057-2.2148-4.9394-4.9488-4.9394L-379.3941,368.9229z"/>
		
			<line fill="none" stroke="#FFFFFF" stroke-width="2.684" stroke-linecap="round" x1="-520.3735" y1="368.9229" x2="-388.3667" y2="368.9229"/>
		
			<line fill="none" stroke="#FFFFFF" stroke-width="2.684" stroke-linecap="round" x1="-519.7915" y1="350.6126" x2="-388.9456" y2="350.6126"/>
		
			<line fill="none" stroke="#FFFFFF" stroke-width="2.684" stroke-linecap="round" x1="-402.9016" y1="334.1901" x2="-506.9963" y2="334.1901"/>
		
			<line fill="none" stroke="#FFFFFF" stroke-width="2.684" stroke-linecap="round" x1="-506.4174" y1="237.2275" x2="-402.3196" y2="237.2275"/>
		
			<line fill="none" stroke="#FFFFFF" stroke-width="2.684" stroke-linecap="round" x1="-523.2805" y1="218.9488" x2="-381.9707" y2="218.9488"/>
	</g>
	<path fill="#FFFFFF" stroke="#20201E" stroke-width="3.4947" d="M-380.5172,120.193c2.7344,0,4.945-2.2121,4.945-4.9466v-11.6226
		c0-2.7344-2.2106-4.945-4.945-4.945h-148.8667c-2.7328,0-4.945,2.2106-4.945,4.945v11.6226c0,2.7344,2.212,4.9466,4.945,4.9466
		H-380.5172z"/>
	<rect x="-526.3322" y="80.3635" fill="#FFFFFF" stroke="#20201E" stroke-width="3.4947" width="142.7664" height="18.3191"/>
	<polygon fill="#FFFFFF" stroke="#20201E" stroke-width="3.4947" stroke-linejoin="bevel" points="-383.5658,80.3635 
		-398.2454,63.9094 -511.6526,63.9094 -526.3322,80.3635 	"/>
	<polygon fill="#FFFFFF" stroke="#20201E" stroke-width="3.4947" stroke-linejoin="round" points="-379.092,-51.3664 
		-398.2454,-33.0436 -511.6526,-33.0436 -530.8688,-51.3664 	"/>
	<rect x="-511.6525" y="-33.0436" fill="#FFFFFF" stroke="#20201E" stroke-width="3.4947" width="113.2561" height="96.9625"/>
	<path fill="#FFFFFF" stroke="#20201E" stroke-width="3.4947" stroke-linecap="square" d="M-383.7577-87.5087h-26.4161v16.987
		l-14.8241,4.9098l-13.6688-4.9098v-16.987h-32.562v16.987l-13.6688,4.9098l-14.8256-4.9098v-16.987h-26.4162
		c-2.6115,0-4.7283,2.2121-4.7283,4.9419v31.2536h151.8429v-31.2536c-0.0031-2.7308-2.1205-4.9425-4.7317-4.9425L-383.7577-87.5087z
		"/>
	<path fill="#20201E" d="M149.8915,385.1882c-1.9648-1.0723-19.6615-18.4619-36.0731-18.4619
		c-8.5335,0-15.2252,2.5746-21.1241,4.8481c-5.9848,2.3043-11.6349,4.4794-19.8135,4.4794c-9.532,0-17.4448-2.9095-24.4297-5.4748
		c-5.6315-2.0646-10.4951-3.8527-15.4725-3.8527c-4.9739,0-9.8378,1.7881-15.4693,3.8527
		c-6.9818,2.5654-14.8964,5.4748-24.4281,5.4748c-8.1801,0-13.8302-2.1752-19.8135-4.4794
		c-5.9005-2.2736-12.5906-4.8481-21.1225-4.8481c-16.4157,0-34.1131,17.3894-36.0762,18.4619c0,0,7.1448-4.4703,13.7934-4.4703
		c6.6502,0,12.4091,4.6638,22.2838,4.6638c5.0649,0,9.1926,1.5884,14.4217,3.6007c6.6241,2.5531,14.8656,5.7237,26.5143,5.7237
		c12.8518,0,23.2609-3.8219,30.8619-6.6118c3.4594-1.2719,7.3798-2.7129,9.0359-2.7129c1.6621,0,5.5793,1.4409,9.0387,2.7129
		c7.6025,2.7897,18.0101,6.6118,30.8635,6.6118c11.6459,0,19.8905-3.1706,26.5143-5.7237c5.226-2.0124,9.3552-3.6007,14.4233-3.6007
		c9.8731,0,17.3557-4.6638,22.2806-4.6638s13.8743,4.4674,13.8743,4.4674L149.8915,385.1882z"/>
	<path fill="#FFFFFF" stroke="#20201E" stroke-width="4.1522" d="M95.6844,278.5043c0-29.4301-25.1118-76.0819-44.3316-82.3898
		c-0.6682-0.2197-1.3564-0.404-2.0631-0.5515c3.3518-1.2428,5.7485-4.458,5.7485-8.2431c0-4.8576-3.9402-8.793-8.793-8.793
		c-4.8544,0-8.7977,3.9358-8.7977,8.793c0,3.3751,1.9079,6.2985,4.6962,7.7762c-3.9402,0.255-8.1971,1.2796-12.5828,3.0462
		c-2.7974-1.272-5.5808-2.1829-8.323-2.6822c3.2074-1.3103,5.472-4.4627,5.472-8.1402c0-4.8576-3.9358-8.793-8.793-8.793
		s-8.793,3.9358-8.793,8.793c0,3.4302,1.9694,6.3982,4.8358,7.8466c-1.4886,0.1644-2.9541,0.4731-4.3872,0.9478
		c-19.1745,6.3092-43.7275,51.2341-43.7275,82.3898c0,24.8463,10.0666,46.2507,21.6863,61.7451
		c1.7297,4.5933,4.3595,4.7282,4.9281,5.2967c0.0015,0,0.0031-0.0031,0.0046-0.0031c-0.0108,0.0768-2.3027,14.9747-2.527,18.3389
		c-0.3456,5.186-0.8679,11.3124-0.8679,11.3124c12.6781,5.5765,26.5697,8.8147,41.6605,8.8147
		c15.0943,0,28.301-3.5516,40.9747-9.1249c-0.4516-4.1447-0.9693-8.2862-2.0062-14.5076
		c-0.5407-3.2537-2.4026-14.8394-2.4026-14.8394c0.5653-0.5623,3.9848-4.8513,3.9848-4.8513
		c12.3327-15.5732,24.3822-36.3374,24.3822-62.1667L95.6844,278.5043z"/>
	<path stroke="#000000" stroke-width="1.6765" d="M-7.2242,345.5475c10.2817-4.4304,22.1041-8.3138,37.4228-8.3138
		c15.3142,0,27.1319,3.8804,37.4133,8.3044c0.5638-0.5622,1.9079-2.0032,4.6839-5.8898
		c-8.6502-9.3615-21.2393-14.5047-41.8335-14.5047c-21.9736,0-33.9683,5.7331-42.617,15.1069
		c1.7618,4.5618,4.4045,4.7191,4.9708,5.2854L-7.2242,345.5475z"/>
	<path fill="#FFFFFF" stroke="#000000" stroke-width="3.1886" stroke-linejoin="bevel" d="M71.3652,374.869
		c-12.6797-5.5701-25.6466-8.3322-40.7387-8.3322s-29.2196,3.0724-41.8965,8.6426c12.6765,5.5765,26.5681,8.8147,41.6605,8.8147
		c15.1012,0,28.3148-3.5551,40.9935-9.1237L71.3652,374.869z"/>
	<path stroke="#000000" stroke-width="1.6765" d="M71.0191,340.671c7.9851-13.3463,18.4908-38.5176,5.3628-81.3547
		c-11.0145-35.9409-43.4664-71.0104-67.0715-63.2175c-20.9366,6.9129-43.7275,56.4188-43.7275,82.3898
		c0,24.8463,10.0634,46.2507,21.6816,61.7451l83.7804,0.409L71.0191,340.671z"/>
	<circle stroke="#000000" stroke-width="1.6765" cx="17.6614" cy="187.2991" r="8.7939"/>
	<path stroke="#000000" stroke-width="1.6765" stroke-linejoin="bevel" d="M67.0235,345.516l-0.0031-0.0092
		c-10.2817-4.4212-22.1085-8.1263-37.4133-8.1263c-15.3171,0-27.1287,3.7083-37.4133,8.1355c0,0-2.3043,14.9716-2.5285,18.3448
		c-0.3456,5.186-0.8664,11.3124-0.8664,11.3124c12.6749-5.5701,26.8063-8.6426,41.8933-8.6426
		c14.8026,0,28.2425,2.9618,40.7387,8.3322c-0.4501-4.1447-0.9693-8.2862-2.0047-14.5076
		c-0.5663-3.2719-2.4225-14.881-2.4225-14.881L67.0235,345.516z"/>
	<path fill="none" stroke="#FFFFFF" stroke-width="1.6765" stroke-linecap="round" stroke-linejoin="bevel" d="M66.646,365.588
		c-11.397-3.5393-23.5649-5.4843-36.1203-5.4843c-12.7687,0-25.8184,2.08-37.5234,5.7545"/>
	<g>
		<path fill="none" stroke="#FFFFFF" stroke-width="1.6765" stroke-linecap="round" d="M-4.55,344.1631
			c9.5229-3.8344,20.442-6.9529,34.1665-6.9529c13.7978,0,24.7553,3.1524,34.3144,7.0111"/>
		<path fill="none" stroke="#FFFFFF" stroke-width="1.6765" stroke-linecap="round" d="M70.1382,337.3991
			c-12.0882-9.6685-21.7615-12.2587-39.6627-12.2587c-14.993,0-30.4639,3.9694-37.8758,10.7593"/>
	</g>
	<polygon fill="#FFFFFF" stroke="#000000" stroke-width="1.6765" points="51.4818,262.1446 47.3919,266.266 26.6907,266.266 
		26.6907,247.5782 30.8121,243.4568 22.5064,235.1512 14.2007,243.4568 18.3535,247.6096 18.3535,266.266 -2.4736,266.266 
		-6.5949,262.1446 -14.9006,270.4503 -6.5949,278.756 -2.4106,274.6031 18.3535,274.6031 18.3535,297.3808 14.2007,301.5336 
		22.5064,309.8393 30.8121,301.5336 26.6907,297.4123 26.6907,274.6031 47.329,274.6031 51.4818,278.756 59.7875,270.4503 	"/>
	<path fill="#FFFFFF" stroke="#20201E" stroke-width="4.1522" stroke-linecap="round" stroke-linejoin="round" d="
		M146.6196,115.0649c-1.9648-1.0707-19.6615-18.4603-36.0762-18.4603c-8.5319,0-15.2236,2.5762-21.1241,4.8465
		c-5.9836,2.3043-11.6336,4.481-19.8122,4.481c-9.532,0-17.4448-2.908-24.4313-5.4736c-5.6302-2.0677-10.4951-3.8543-15.4709-3.8543
		c-4.9739,0-9.8362,1.7866-15.4678,3.8543c-6.9818,2.5654-14.8964,5.4736-24.4297,5.4736c-8.1786,0-13.8302-2.1768-19.8135-4.481
		c-5.9005-2.2705-12.5919-4.8465-21.1254-4.8465c-16.4125,0-34.1099,17.3894-36.0731,18.4603c0,0,7.5317-4.4687,13.7934-4.4687
		s12.4076,4.6622,22.2806,4.6622c5.0677,0,9.1954,1.5899,14.4248,3.6038c6.6241,2.5501,14.8672,5.7237,26.5143,5.7237
		c12.8502,0,23.2609-3.8219,30.8619-6.6131c3.461-1.2735,7.3798-2.7144,9.0359-2.7144c1.6621,0,5.5793,1.4409,9.0387,2.7144
		c7.601,2.7912,18.0101,6.6131,30.8635,6.6131c11.6443,0,19.8889-3.1738,26.5143-5.7237c5.2244-2.0139,9.3552-3.6038,14.4217-3.6038
		c9.8746,0,13.9469-4.6622,22.2822-4.6622c8.4001,0,13.8743,4.4674,13.8743,4.4674L146.6196,115.0649z"/>
	<path fill="#FFFFFF" stroke="#20201E" stroke-width="4.1522" d="M47.8009-74.0026c-0.6667-0.2182-1.3564-0.4025-2.0585-0.5499
		c3.3487-1.2443,5.7438-4.458,5.7438-8.2431c0-4.8576-3.9358-8.793-8.793-8.793s-8.7946,3.9358-8.7946,8.793
		c0,3.3751,1.9018,6.2985,4.693,7.7762c-25.2395,1.6391-63.5542,34.887-64.7749,91.18
		c-0.4854,22.3668,2.3504,40.6758,10.1619,53.9743l84.4505-0.6022C80.7754,53.9558,92.1293,34.2399,92.1293,8.3885
		c0-34.3931-25.1058-76.1039-44.3284-82.415V-74.0026z"/>
	<path fill="#FFFFFF" stroke="#20201E" stroke-width="4.1522" d="M73.0955-10.7819c-9.2847-30.2965-33.7953-59.955-55.4089-63.8719
		c3.2121-1.3103,5.4736-4.4627,5.4736-8.1402c0-4.8576-3.9358-8.793-8.793-8.793c-4.856,0-8.7946,3.9358-8.7946,8.793
		c0,3.4302,1.9709,6.3982,4.839,7.8467C8.92-74.7845,7.456-74.4742,6.0244-74.0011c-19.1745,6.3107-43.7306,48.7078-43.7306,82.393
		c0,24.8462,10.0666,46.2507,21.6847,61.7452l84.4505-0.6022c7.991-13.3394,17.7754-37.5014,4.6562-80.3228L73.0955-10.7819z"/>
	<path fill="#FFFFFF" stroke="#000000" stroke-width="3.1886" stroke-linejoin="bevel" d="M68.1561,104.7772
		c-10.6118-4.8682-25.645-8.3337-40.7324-8.3337c-15.0943,0-29.2243,3.0723-41.8996,8.6455
		c12.6749,5.5701,26.5697,8.81,41.6605,8.81c15.1012,0,28.3148-3.5551,40.9935-9.1236L68.1561,104.7772z"/>
	<path fill="#FFFFFF" stroke="#20201E" stroke-width="4.1522" stroke-linejoin="bevel" d="M63.7516,75.4241l-0.0077-0.0108
		c-10.2817-4.4196-22.1101-8.1248-37.4133-8.1248c-15.3171,0-27.1287,3.7083-37.4133,8.1355c0,0-2.3043,14.9685-2.527,18.348
		c-0.3472,5.1816-0.8679,11.3124-0.8679,11.3124c12.6749-5.5733,26.8047-8.6455,41.8996-8.6455
		c14.7979,0,28.238,2.9602,40.7324,8.3337c-0.4486-4.1478-0.9678-8.2921-2.0032-14.5107c-0.5663-3.3034-2.4225-14.881-2.4225-14.881
		L63.7516,75.4241z"/>
	<path fill="#FFFFFF" stroke="#20201E" stroke-width="4.1522" stroke-linejoin="bevel" d="M-14.4917,105.0917
		c12.6749-5.5733,26.8047-8.6455,41.8996-8.6455c14.7979,0,28.2381,2.9602,40.7324,8.3337
		c-0.3211-3.4701-1.0891-5.6331-1.573-10.0618c-12.5551-4.3982-25.2839-6.6423-39.3544-6.6423
		c-14.2298,0-28.3302,2.5838-41.0061,7.0771c-0.0629,3.9012-0.7236,9.9417-0.7236,9.9417L-14.4917,105.0917z"/>
	<path fill="#FFFFFF" stroke="#20201E" stroke-width="4.1522" d="M-11.0939,75.4241c10.2833-4.424,22.1057-8.2125,37.4259-8.3107
		c13.0437-0.086,27.1334,3.8804,37.4165,8.3044c0.5638-0.5653,2.9525-1.2904,4.6823-5.8898
		c-8.647-9.3615-21.5035-14.2512-42.0978-14.2512c-21.9751,0-33.7072,5.4795-42.3527,14.8533
		c1.6989,4.5933,4.3416,4.7191,4.9079,5.2854L-11.0939,75.4241z"/>
	<line fill="none" stroke="#000000" stroke-width="3.1886" x1="26.3446" y1="55.2892" x2="26.3446" y2="67.1185"/>
	<polygon fill="#FFFFFF" stroke="#000000" stroke-width="2.4221" points="48.2099,-7.9787 44.0886,-3.8573 23.3873,-3.8573 
		23.3873,-22.5262 27.5087,-26.6476 19.203,-34.947 10.8973,-26.6476 15.0501,-22.4822 15.0501,-3.8573 -5.7455,-3.8573 
		-9.8669,-7.9787 -18.1726,0.327 -9.8669,8.6326 -5.714,4.4798 15.0501,4.4798 15.0501,27.289 10.8973,31.4418 19.203,39.7475 
		27.5087,31.4418 23.3873,27.3204 23.3873,4.4798 44.0571,4.4798 48.2099,8.6326 56.5156,0.327 	"/>
	<path fill="#20201E" stroke="#20201E" stroke-width="2.684" d="M713.5765,204.8543c0,0,3.4903-18.7567,3.4903-21.3745
		c0-2.6146,2.6146-3.0524,5.2322,0.4378c2.6176,3.4902,14.394,20.4986,14.394,20.4986l-23.1238,0.409L713.5765,204.8543z"/>
	<path fill="#20201E" stroke="#20201E" stroke-width="2.684" d="M870.0316,348.725c-1.1829-8.4551-2.802-16.517-4.7682-24.1824
		l-6.3198-2.5255l4.2214-5.0479c-2.4056-8.1081-5.2014-15.7427-8.2708-22.9183l-5.9788-1.6928l2.9888-5.0966
		c-3.2137-6.8252-6.664-13.1928-10.2493-19.1207l-5.5734-1.1183l2.0001-4.604c-4.0157-6.1953-8.145-11.8564-12.2402-16.9933
		l-5.8989-0.6467l1.5761-4.5961c-4.7868-5.6239-9.4537-10.5168-13.7705-14.6967l-5.908-0.3318l1.0323-4.229
		c-10.5259-9.5289-17.9702-14.1637-17.9702-14.1637l-13.3741,4.0711c0,0-6.3966-3.4918-11.6288-6.979
		c0,0-3.4903-11.6304-4.6484-18.0287c-1.1675-6.3935-4.6578-3.4855-5.8159-1.7451c-1.1675,1.7451-13.2324,15.1207-13.2324,15.1207
		s-7.2172-0.9893-12.3541,0c-7.561,1.4548-11.0513,6.5442-19.7737,14.8319c-6.3658,6.0402-10.1817,11.3401-12.3569,17.0072
		c-2.1813,5.6699,0.4332,5.6699-0.4363,10.9022c-0.8756,5.237-24.4281,44.4889-27.0397,49.2867
		c-2.6207,4.7975-8.9406,19.468,3.4871,28.7864c3.4839,2.6176,6.1047,3.9294,8.2831,4.7959c0,0,3.4903-0.8664,4.799-2.6115
		c0.2304-0.3134,0.3533-0.5069,0.4117-0.6114c0.04-0.1198,0.0615-0.1229,0,0c-0.1352,0.341-0.4424,1.6161,0.8972,3.2228
		c2.1813,2.6176,4.9835,2.4272,6.5442,2.6176c2.3227,0.295,6.5378-1.742,10.0313-6.9774c3.4871-5.2323,5.6686-6.9805,8.2861-10.0313
		c2.6146-3.0539,17.0515-9.8086,22.6833-19.1915c1.3058-2.1768,4.3596-1.3073,6.5379,0.4378
		c2.1813,1.7451,14.3908,2.1844,19.6263-6.5426c0,0,2.4733,22.9428-7.853,38.8196c-17.0056,26.1642-45.7944,32.7068-54.5186,57.133
		h178.8238c0-8.4428-0.4455-16.5478-1.2505-24.3391l-5.9479-3.14l5.0338-4.8764L870.0316,348.725z"/>
	<path fill="none" stroke="#FFFFFF" stroke-width="2.684" d="M777.9141,216.6836c0,0,76.1763,56.9915,76.1763,159.9221"/>
	<path fill="none" stroke="#20201E" stroke-width="2.684" d="M681.2032,320.945
		C681.2662,320.8506,681.2347,320.8506,681.2032,320.945z"/>
	<path fill="none" stroke="#FFFFFF" stroke-width="2.684" d="M762.2151,256.2299c1.4501,16.2788-6.1078,27.9108-6.3967,28.9276
		c0,0,18.3204-9.4474,20.0655-21.9534"/>
	<path fill="none" stroke="#FFFFFF" stroke-width="2.684" d="M755.7971,285.1425c0,0,12.2125,5.9634,21.227,2.1829"/>
	<path fill="none" stroke="#20201E" stroke-width="2.684" d="M680.7943,321.5742c0,0,8.1417-10.4705,10.4705-15.2664"/>
	<path fill="none" stroke="#FFFFFF" stroke-width="2.684" d="M730.9429,224.9578c0,0-13.4108,0.0645-17.8843,7.4106
		c-6.1047,10.0342,0.8756,11.3416,0.8756,11.3416s6.9742,2.1829,11.7733-4.3595c5.1092-6.9667,0.8694-11.3416,0.8694-11.3416
		l4.3416-3.0517L730.9429,224.9578z"/>
	<path fill="none" stroke="#FFFFFF" stroke-width="2.684" d="M665.9762,298.8909c4.796-1.3073,7.8467-0.8726,10.025,0.4393
		c0,0-2.1783-6.5442,1.7451-12.2156c3.9294-5.6699,10.4737-6.1031,16.136-17.0056"/>
	<line fill="none" stroke="#FFFFFF" stroke-width="2.684" x1="793.2985" y1="231.0612" x2="801.6041" y2="225.8387"/>
	<line fill="none" stroke="#FFFFFF" stroke-width="2.684" x1="810.3188" y1="249.8119" x2="818.6245" y2="245.9108"/>
	<line fill="none" stroke="#FFFFFF" stroke-width="2.684" x1="825.5774" y1="271.5829" x2="835.1729" y2="267.6503"/>
	<line fill="none" stroke="#FFFFFF" stroke-width="2.684" x1="837.8156" y1="296.4999" x2="847.8202" y2="293.0078"/>
	<line fill="none" stroke="#FFFFFF" stroke-width="2.684" x1="847.3798" y1="325.7271" x2="857.8562" y2="322.6754"/>
	<line fill="none" stroke="#FFFFFF" stroke-width="2.684" x1="853.0742" y1="355.3632" x2="863.9597" y2="354.0733"/>
	<path fill="#FFFFFF" stroke="#20201E" stroke-width="3.4947" d="M703.1-59.9081c0,0,3.4903-18.7551,3.4903-21.3714
		s2.6146-3.0539,5.2322,0.4363c2.6177,3.4887,14.394,20.4987,14.394,20.4987l-23.1238,0.4342L703.1-59.9081z"/>
	<path fill="#FFFFFF" stroke="#20201E" stroke-width="3.4947" d="M859.5866,83.9501c-1.1829-8.4583-2.7989-16.5217-4.7682-24.1872
		l-6.3198-2.5224l4.2183-5.0479c-2.4026-8.1081-5.1955-15.7427-8.2676-22.9199l-5.982-1.6898l2.9587-5.057
		c-3.2137-6.8251-6.664-13.1912-10.2462-19.1194l-5.5764-1.1199l2.0032-4.604c-4.0186-6.1969-8.145-11.8564-12.2402-16.9933
		l-5.9021-0.6467l1.5761-4.5961c-4.7899-5.6255-9.4568-10.5183-13.7733-14.6982l-5.9021-0.3318l1.0292-4.229
		c-10.5291-9.5273-17.9702-14.1637-17.9702-14.1637l-13.374,4.0723c0,0-6.3935-3.4903-11.6288-6.979
		c0,0-3.4903-11.6305-4.6484-18.0271c-1.1675-6.3966-4.6546-3.4903-5.819-1.7451c-1.1614,1.7451-13.2297,15.1176-13.2297,15.1176
		s-7.2172-0.9862-12.36,0c-7.5551,1.4578-11.045,6.5442-19.7738,14.8303c-6.3567,6.0449-10.1725,11.3432-12.351,17.01
		c-2.1813,5.6699,0.4332,5.6699-0.4332,10.9037c-0.8787,5.2338-24.4313,44.4857-27.0429,49.2835
		c-2.6207,4.7975-8.9374,19.4696,3.4871,28.7848c3.4839,2.6176,6.1078,3.9295,8.2861,4.7975c0,0,3.4871-0.8679,4.796-2.613
		c0.2335-0.3118,0.3503-0.5023,0.4086-0.6083c0.043-0.1167,0.0645-0.1244,0,0c-0.1321,0.3395-0.4363,1.6145,0.9002,3.2213
		c2.1814,2.6192,4.9835,2.4241,6.541,2.6192c2.3258,0.2919,6.5411-1.742,10.0341-6.979c3.4903-5.2338,5.6715-6.9806,8.2893-10.0329
		c2.6115-3.0524,17.0487-9.807,22.6802-19.1899c1.3057-2.1767,4.3596-1.3088,6.5378,0.4378
		c2.1814,1.7451,14.394,2.1829,19.6263-6.5442c0,0,2.4732,22.9444-7.8498,38.8196c-17.0084,26.1688-45.7945,32.7068-54.5186,57.1362
		h178.8206c0-8.4413-0.4455-16.5462-1.2504-24.3423l-5.9448-3.1369l5.1282-4.845L859.5866,83.9501z"/>
	<path fill="none" stroke="#20201E" stroke-width="2.684" d="M767.4376-48.0788c0,0,76.1763,56.9946,76.1763,159.9221"/>
	<path fill="none" stroke="#20201E" stroke-width="2.684" d="M670.7268,56.8622C670.7897,56.7364,670.7897,56.7364,670.7268,56.8622
		z"/>
	<path fill="none" stroke="#20201E" stroke-width="2.684" d="M751.7386-8.545c1.4532,16.2788-6.1078,27.9093-6.3967,28.9261
		c0,0,18.3204-9.4474,20.0627-21.9534"/>
	<path fill="none" stroke="#20201E" stroke-width="2.684" d="M745.3521,20.399c0,0,12.2125,5.965,21.227,2.1845"/>
	<path fill="none" stroke="#20201E" stroke-width="2.684" d="M670.3178,57.46c0,0,8.1417-10.4689,10.4736-15.2664"/>
	<path fill="none" stroke="#20201E" stroke-width="2.684" d="M720.4979-39.7888c0,0-13.4108,0.063-17.8811,7.4122
		c-6.1047,10.0329,0.8694,11.3401,0.8694,11.3401s6.9774,2.1829,11.7764-4.3595c5.1093-6.9667,0.8726-11.3401,0.8726-11.3401
		l4.3416-3.0549L720.4979-39.7888z"/>
	<path fill="none" stroke="#20201E" stroke-width="2.684" d="M655.4996,34.7767c4.7991-1.3073,7.853-0.8695,10.0314,0.4378
		c0,0-2.1783-6.5426,1.742-12.2141c3.9294-5.6699,10.4677-6.1078,16.1392-17.01"/>
	<line fill="none" stroke="#20201E" stroke-width="2.684" x1="782.8535" y1="-33.6854" x2="791.1277" y2="-38.9174"/>
	<line fill="none" stroke="#20201E" stroke-width="2.684" x1="799.8738" y1="-14.9316" x2="808.148" y2="-18.8548"/>
	<line fill="none" stroke="#20201E" stroke-width="2.684" x1="815.1323" y1="6.8394" x2="824.7279" y2="2.9068"/>
	<line fill="none" stroke="#20201E" stroke-width="2.684" x1="827.3392" y1="31.725" x2="837.3752" y2="28.2328"/>
	<line fill="none" stroke="#20201E" stroke-width="2.684" x1="836.9348" y1="60.9521" x2="847.4111" y2="57.9004"/>
	<line fill="none" stroke="#20201E" stroke-width="2.684" x1="842.5977" y1="90.6198" x2="853.5146" y2="89.2984"/>
	<path stroke="#000000" stroke-width="2.4843" stroke-linejoin="round" d="M1026.3293,362.379
		c-11.7978-23.4204-10.6057-65.1398-9.6194-81.3044c18.6584-1.2796,32.0775-4.8129,32.0775-8.9774
		c0-4.0877-12.9163-7.5701-31.0339-8.9066c11.5704-5.9634,19.4879-18.0177,19.4879-31.9297
		c0-19.8352-16.0715-35.9126-35.9063-35.9126c-19.8348,0-35.9063,16.0778-35.9063,35.9126c0,13.9117,7.9206,25.9659,19.4878,31.9297
		c-18.1146,1.3365-31.0368,4.8188-31.0368,8.9066c0,4.1645,13.4263,7.6978,32.0807,8.9774
		c0.9893,16.1668,2.1813,57.8849-9.6164,81.3044c-23.1226,4.6483-39.3481,15.5615-39.3481,28.2717h128.675
		c0-12.7102-16.2024-23.6271-39.326-28.2834L1026.3293,362.379z"/>
	<path fill="#FFFFFF" stroke="#000000" stroke-width="3.4947" stroke-linejoin="round" d="M1026.3293,99.3659
		c-11.7978-23.4236-10.6057-65.1429-9.6194-81.3044c18.6584-1.2796,32.0775-4.8145,32.0775-8.979
		c0-4.0877-12.9163-7.5717-31.0339-8.9066c11.5704-5.9618,19.4879-18.0192,19.4879-31.9328
		c0-19.832-16.0715-35.9095-35.9063-35.9095c-19.8348,0-35.9063,16.0778-35.9063,35.9095c0,13.9133,7.9142,25.9707,19.4878,31.9328
		c-18.1146,1.3349-31.0368,4.8189-31.0368,8.9066c0,4.1645,13.4263,7.6994,32.0807,8.979
		c0.9893,16.1621,2.1813,57.8818-9.6164,81.3044c-23.1226,4.6483-39.3481,15.5583-39.3481,28.2701h128.675
		c0-12.7102-16.2024-23.6271-39.326-28.2834L1026.3293,99.3659z"/>
	<path fill="#FFFFFF" stroke="#20201E" stroke-width="3.4947" d="M-164.4658-59.9081c0,0-3.4903-18.7551-3.4903-21.3714
		s-2.613-3.0539-5.2323,0.4363c-2.6176,3.4887-14.3924,20.4987-14.3924,20.4987l23.0923,0.4342L-164.4658-59.9081z"/>
	<path fill="#FFFFFF" stroke="#20201E" stroke-width="3.4947" d="M-320.9492,83.9501c1.1829-8.4583,2.802-16.5217,4.7698-24.1872
		l6.3199-2.5224l-4.2183-5.0479c2.4026-8.1081,5.1971-15.7427,8.2676-22.9199l5.9804-1.6898l-2.9571-5.057
		c3.2122-6.8251,6.664-13.1912,10.2449-19.1194l5.5764-1.1199l-2.0001-4.604c4.0172-6.1969,8.1433-11.8564,12.237-16.9933
		l5.9021-0.6467l-1.5761-4.5961c4.7899-5.6255,9.4584-10.5183,13.7748-14.6982l5.9037-0.3318l-1.0323-4.229
		c10.529-9.5273,17.9686-14.1637,17.9686-14.1637l13.3756,4.0723c0,0,6.3951-3.4903,11.6305-6.979
		c0,0,3.4871-11.6305,4.6483-18.0271c1.166-6.3966,4.6531-3.4903,5.8159-1.7451c1.166,1.7451,13.2312,15.1176,13.2312,15.1176
		s7.2184-0.9862,12.3585,0c7.5566,1.4578,11.0466,6.5442,19.7738,14.8303c6.3582,6.0449,10.1741,11.3432,12.3541,17.01
		c2.1798,5.6699-0.4347,5.6699,0.4347,10.9037c0.8772,5.2338,24.4269,44.4857,27.0397,49.2835
		c2.6223,4.7975,8.9406,19.4696-3.4855,28.7848c-3.4871,2.6176-6.1078,3.9295-8.2846,4.7975c0,0-3.4918-0.8679-4.7975-2.613
		c-0.2335-0.3118-0.3533-0.5023-0.4102-0.6083c-0.0415-0.1167-0.0645-0.1244,0,0c0.1337,0.3395,0.4378,1.6145-0.9002,3.2213
		c-2.1814,2.6192-4.9818,2.4241-6.541,2.6192c-2.3273,0.2919-6.5426-1.742-10.0329-6.979
		c-3.4903-5.2338-5.6699-6.9806-8.2893-10.0329c-2.613-3.0524-17.0487-9.807-22.6802-19.1899
		c-1.3073-2.1767-4.3595-1.3088-6.5395,0.4378c-2.1798,1.7451-14.394,2.1829-19.6247-6.5442c0,0-2.4748,22.9444,7.8498,38.8196
		c17.0071,26.1688,45.7945,32.7068,54.5217,57.1362h-178.8961c0-8.4413,0.4455-16.5462,1.2505-24.3423l5.9464-3.1369l-4.9803-4.845
		L-320.9492,83.9501z"/>
	<path fill="none" stroke="#20201E" stroke-width="2.684" d="M-228.8033-48.0788c0,0-76.1731,56.9946-76.1731,159.9221"/>
	<path fill="none" stroke="#20201E" stroke-width="2.684" d="M-132.0925,56.8622
		C-132.1554,56.7364-132.1554,56.7364-132.0925,56.8622z"/>
	<path fill="none" stroke="#20201E" stroke-width="2.684" d="M-213.1043-8.545c-1.4532,16.2788,6.1078,27.9093,6.3982,28.9261
		c0,0-18.3219-9.4474-20.0639-21.9534"/>
	<path fill="none" stroke="#20201E" stroke-width="2.684" d="M-206.7178,20.399c0,0-12.2156,5.965-21.227,2.1845"/>
	<path fill="none" stroke="#20201E" stroke-width="2.684" d="M-131.6835,57.46c0,0-8.1433-10.4689-10.4721-15.2664"/>
	<path fill="none" stroke="#20201E" stroke-width="2.684" d="M-181.8636-39.7888c0,0,13.4108,0.063,17.8843,7.4122
		c6.1031,10.0329-0.8725,11.3401-0.8725,11.3401s-6.9774,2.1829-11.7765-4.3595c-5.1077-6.9667-0.8725-11.3401-0.8725-11.3401
		l-4.3416-3.0549L-181.8636-39.7888z"/>
	<path fill="none" stroke="#20201E" stroke-width="2.684" d="M-116.8654,34.7767c-4.8022-1.3073-7.8529-0.8695-10.0297,0.4378
		c0,0,2.1768-6.5426-1.7451-12.2141c-3.9294-5.6699-10.4689-6.1078-16.1391-17.01"/>
	<line fill="none" stroke="#20201E" stroke-width="2.684" x1="-244.2192" y1="-33.6854" x2="-252.4934" y2="-38.9174"/>
	<line fill="none" stroke="#20201E" stroke-width="2.684" x1="-261.2301" y1="-14.9316" x2="-269.52" y2="-18.8548"/>
	<line fill="none" stroke="#20201E" stroke-width="2.684" x1="-276.4917" y1="6.8394" x2="-286.0873" y2="2.9068"/>
	<line fill="none" stroke="#20201E" stroke-width="2.684" x1="-288.708" y1="31.725" x2="-298.7377" y2="28.2328"/>
	<line fill="none" stroke="#20201E" stroke-width="2.684" x1="-298.3004" y1="60.9521" x2="-308.7706" y2="57.9004"/>
	<line fill="none" stroke="#20201E" stroke-width="2.684" x1="-303.9728" y1="90.6198" x2="-314.8741" y2="89.2984"/>
	<path fill="#20201E" stroke="#20201E" stroke-width="2.684" d="M-164.6231,212.1847c0,0-3.4903-18.7551-3.4903-21.3746
		c0-2.6146-2.6145-3.0508-5.2323,0.4393c-2.6177,3.4902-14.3924,20.4987-14.3924,20.4987l23.0923,0.409L-164.6231,212.1847z"/>
	<path fill="#20201E" stroke="#20201E" stroke-width="2.684" d="M-321.1002,356.0554c1.1844-8.4583,2.8004-16.5201,4.7682-24.1887
		l6.3214-2.5224l-4.2214-5.0448c2.4056-8.1109,5.1999-15.7427,8.2692-22.9183l5.9788-1.6929l-2.954-5.0555
		c3.2122-6.8268,6.6641-13.1928,10.2462-19.1207l5.5749-1.1199l-1.9985-4.604c4.0157-6.1968,8.1418-11.8564,12.2371-16.9933
		l5.9005-0.6467l-1.5761-4.5961c4.7868-5.6239,9.4537-10.5168,13.7717-14.6966l5.9052-0.3318l-1.0308-4.229
		c10.529-9.5273,17.9686-14.1637,17.9686-14.1637l13.3756,4.0695c0,0,6.3951-3.4903,11.6305-6.9774
		c0,0,3.4871-11.6304,4.6499-18.0287c1.1644-6.3951,4.6515-3.4871,5.8143-1.7436c1.166,1.7436,13.2312,15.1207,13.2312,15.1207
		s7.2171-0.9908,12.3553,0c7.5579,1.4548,11.0497,6.5426,19.7738,14.8303c6.3614,6.0417,10.1773,11.3416,12.3569,17.0084
		c2.1798,5.6699-0.4332,5.6699,0.4347,10.9021c0.8756,5.2354,24.4269,44.4857,27.0413,49.2835
		c2.6223,4.7959,8.9374,19.4724-3.4871,28.7848c-3.4871,2.6207-6.1094,3.9263-8.2862,4.7991c0,0-3.4903-0.8726-4.7959-2.6146
		c-0.2335-0.3134-0.3533-0.5039-0.4102-0.6083c-0.043-0.1229-0.0645-0.1229,0,0c0.1337,0.341,0.4378,1.6161-0.9002,3.2228
		c-2.1798,2.6207-4.9818,2.4241-6.5442,2.6207c-2.3242,0.2888-6.5395-1.7482-10.0298-6.9805
		c-3.4918-5.2382-5.6715-6.9805-8.2877-10.0341c-2.6146-3.0509-17.0499-9.807-22.6817-19.1899
		c-1.3073-2.1752-4.3595-1.3058-6.5395,0.4378c-2.1798,1.7466-14.394,2.1829-19.6262-6.5426c0,0-2.4733,22.9413,7.8514,38.8165
		c17.0071,26.1673,45.7914,32.7067,54.5186,57.1361h-178.9244c0-8.4428,0.4439-16.5415,1.2504-24.3362l5.9449-3.143l-4.9771-4.9079
		L-321.1002,356.0554z"/>
	<path fill="none" stroke="#FFFFFF" stroke-width="2.684" d="M-228.9606,224.014c0,0-76.1763,56.9946-76.1763,159.9189"/>
	<path fill="none" stroke="#20201E" stroke-width="2.684" d="M-132.2498,328.2754
		C-132.3127,328.181-132.3127,328.181-132.2498,328.2754z"/>
	<path fill="none" stroke="#FFFFFF" stroke-width="2.684" d="M-213.2616,263.5603c-1.4517,16.2804,6.1094,27.9093,6.3982,28.9276
		c0,0-18.3203-9.4458-20.0654-21.9534"/>
	<path fill="none" stroke="#FFFFFF" stroke-width="2.684" d="M-206.8751,292.4729c0,0-12.2125,5.9634-21.2254,2.1829"/>
	<path fill="none" stroke="#20201E" stroke-width="2.684" d="M-131.8408,328.9046c0,0-8.1433-10.4737-10.4721-15.2696"/>
	<path fill="none" stroke="#FFFFFF" stroke-width="2.684" d="M-182.0209,232.2882c0,0,13.4108,0.0676,17.8827,7.4122
		c6.1062,10.0342-0.871,11.3401-0.871,11.3401s-6.979,2.1844-11.7764-4.3595c-5.1077-6.9651-0.8726-11.3401-0.8726-11.3401
		l-4.3416-3.0517L-182.0209,232.2882z"/>
	<path fill="none" stroke="#FFFFFF" stroke-width="2.684" d="M-117.0227,306.2213c-4.7991-1.3058-7.8514-0.8756-10.0282,0.4394
		c0,0,2.1768-6.5457-1.7436-12.2156c-3.9294-5.6699-10.4721-6.1047-16.1391-17.0084"/>
	<line fill="none" stroke="#FFFFFF" stroke-width="2.684" x1="-244.3764" y1="238.4231" x2="-252.6507" y2="233.1691"/>
	<line fill="none" stroke="#FFFFFF" stroke-width="2.684" x1="-261.3842" y1="257.1738" x2="-269.671" y2="253.2412"/>
	<line fill="none" stroke="#FFFFFF" stroke-width="2.684" x1="-276.6459" y1="278.9132" x2="-286.2415" y2="274.9806"/>
	<line fill="none" stroke="#FFFFFF" stroke-width="2.684" x1="-288.8653" y1="303.8303" x2="-298.8888" y2="300.3381"/>
	<line fill="none" stroke="#FFFFFF" stroke-width="2.684" x1="-298.4546" y1="333.0575" x2="-308.9248" y2="330.0057"/>
	<line fill="none" stroke="#FFFFFF" stroke-width="2.684" x1="-304.127" y1="362.6936" x2="-315.0282" y2="361.4037"/>
</g>
</svg>
